<?xml version="1.0" encoding="utf-8"?>
<svg id="master-artboard" viewBox="0 0 1400 980" version="1.1" xmlns="http://www.w3.org/2000/svg" x="0px" y="0px" width="1400px" height="980px" enable-background="new 0 0 1400 980">
<path d="M 0 0 H 699.875 V 490.101013 H 0 V 0 Z" fill="#CAD8C7" transform="matrix(1, 0, 0, 1, 0, 0)"/><path d="M 0 489.875 H 699.875 V 979.976013 H 0 V 489.875 Z" fill="#FFE59A" transform="matrix(1, 0, 0, 1, 0, 0)"/><path d="M 700.125 0 H 1400 V 490.101013 H 700.125 V 0 Z" fill="#E0EEF6" transform="matrix(1, 0, 0, 1, 0, 0)"/><path d="M 700.125 489.875 H 1400 V 979.976013 H 700.125 V 489.875 Z" fill="#F2977B" transform="matrix(1, 0, 0, 1, 0, 0)"/>
<g transform="matrix(1, 0, 0, 1, 0, 0)">
		<path d="M 0 829 H 699.10498 V 980 H 0 V 829 Z" fill="#FDE3CA"/>
	</g><path fill="#D4DECB" d="M631.534,349.5c0-154.364-125.136-279.5-279.5-279.5s-279.5,125.136-279.5,279.5" transform="matrix(1, 0, 0, 1, 0, 0)"/><path fill="#D9E1D2" d="M540.32,339.393c0-103.987-84.298-188.285-188.285-188.285s-188.285,84.298-188.285,188.285" transform="matrix(1, 0, 0, 1, 0, 0)"/><path d="M 478.533997 349.5 A 126.5 126.5 0 0 1 352.033997 476 A 126.5 126.5 0 0 1 225.533997 349.5 A 126.5 126.5 0 0 1 352.033997 223 A 126.5 126.5 0 0 1 478.533997 349.5 Z" fill="#DCE9DF" transform="matrix(1, 0, 0, 1, 0, 0)"/><path fill="#E6F0F6" d="M1317,349.5C1317,195.136,1191.864,70,1037.5,70S758,195.136,758,349.5" transform="matrix(1, 0, 0, 1, 0, 0)"/><path fill="#EDF3F6" d="M1225.785,339.393c0-103.987-84.298-188.285-188.285-188.285s-188.285,84.298-188.285,188.285" transform="matrix(1, 0, 0, 1, 0, 0)"/><path d="M 1164 349.5 A 126.5 126.5 0 0 1 1037.5 476 A 126.5 126.5 0 0 1 911 349.5 A 126.5 126.5 0 0 1 1037.5 223 A 126.5 126.5 0 0 1 1164 349.5 Z" fill="#FFFFFF" transform="matrix(1, 0, 0, 1, 0, 0)"/><path fill="#F18E72" d="M1317,809.5c0-154.364-125.136-279.5-279.5-279.5S758,655.136,758,809.5" transform="matrix(1, 0, 0, 1, 0, 0)"/><path fill="#EF846A" d="M1237.785,811.393c0-110.614-89.671-200.285-200.285-200.285s-200.285,89.671-200.285,200.285" transform="matrix(1, 0, 0, 1, 0, 0)"/><path d="M 1164 809.5 A 126.5 126.5 0 0 1 1037.5 936 A 126.5 126.5 0 0 1 911 809.5 A 126.5 126.5 0 0 1 1037.5 683 A 126.5 126.5 0 0 1 1164 809.5 Z" fill="#EC7358" transform="matrix(1, 0, 0, 1, 0, 0)"/><path fill="#FFEAAA" d="M631.534,809.5c0-154.364-125.136-279.5-279.5-279.5s-279.5,125.136-279.5,279.5" transform="matrix(1, 0, 0, 1, 0, 0)"/><path fill="#FFF1BC" d="M552.32,811.393c0-110.614-89.671-200.285-200.285-200.285s-200.285,89.671-200.285,200.285" transform="matrix(1, 0, 0, 1, 0, 0)"/><path fill="#FFFCD8" d="M478.534,809.5c0-69.864-56.636-126.5-126.5-126.5s-126.5,56.636-126.5,126.5" transform="matrix(1, 0, 0, 1, 0, 0)"/><path d="M 699.10498046875 491.5899963378906 L 699.10498046875 298 L 787 230 L 865 273 L 900 274 L 950 257 L 1024 328 L 1092 311 L 1166 331 L 1329 276 L 1400 289 L 1400 491.5899963378906 Z" fill="#E3EFF6" transform="matrix(1, 0, 0, 1, 0, 0)"/><path fill="#FFFFFF" d="M635.281,144.052c0.137-1.162,0.216-2.342,0.216-3.541c0-16.514-13.387-29.901-29.901-29.901h-27.387&#10;&#9;&#9;&#9;c-16.514,0-29.901,13.387-29.901,29.901c0,0.602,0.023,1.198,0.058,1.791H530.21c-16.514,0-29.901,13.387-29.901,29.901&#10;&#9;&#9;&#9;c0,16.514,13.387,29.901,29.901,29.901h94.981c16.514,0,29.901-13.387,29.901-29.901&#10;&#9;&#9;&#9;C655.093,159.231,646.829,148.191,635.281,144.052z" transform="matrix(1, 0, 0, 1, 0, 0)"/><path fill="#FFFFFF" d="M70.193,608.502c-0.091-0.782-0.143-1.577-0.143-2.384c0-11.117,8.89-20.129,19.857-20.129h18.188&#10;&#9;&#9;&#9;c10.967,0,19.857,9.012,19.857,20.129c0,0.405-0.015,0.807-0.039,1.206h12.056c10.967,0,19.857,9.012,19.857,20.129&#10;&#9;&#9;&#9;c0,11.117-8.89,20.129-19.857,20.129H76.893c-10.967,0-19.857-9.012-19.857-20.129C57.036,618.72,62.523,611.288,70.193,608.502z" transform="matrix(1, 0, 0, 1, 0, 0)"/><path fill="#FFFFFF" d="M-0.2,160.938h73.803c12.415,0,22.479-10.064,22.479-22.479c0-9.752-6.212-18.051-14.894-21.163&#10;&#9;&#9;&#9;c0.103-0.874,0.162-1.761,0.162-2.662c0-12.415-10.064-22.479-22.479-22.479H38.783c-12.415,0-22.979,10.064-22.979,22.479&#10;&#9;&#9;&#9;c0,0.452,0.017,0.901,0.044,1.347H-0.2V160.938z" transform="matrix(1, 0, 0, 1, 0, 0)"/><path fill="#FFFFFF" d="M394.454,270.245c-0.131-1.097-0.206-2.211-0.206-3.342c0-15.589,12.802-28.226,28.593-28.226h11.977&#10;&#9;&#9;&#9;c15.792,0,28.593,12.637,28.593,28.226c0,0.568-0.022,1.131-0.056,1.691h17.36c15.792,0,28.593,12.637,28.593,28.226&#10;&#9;&#9;&#9;c0,15.589-12.802,28.226-28.593,28.226h-76.614c-15.792,0-28.593-12.637-28.593-28.226&#10;&#9;&#9;&#9;C375.509,284.573,383.41,274.152,394.454,270.245z" transform="matrix(1, 0, 0, 1, 0, 0)"/><path fill="#B2C4B0" d="M530.599,453.288C415.105,438.461,332.43,387.88,278,355c-5.628-3.4-11.919-7.607-18.64-12.367&#10;&#9;&#9;&#9;l-9.744-26.016l-5.551,14.823C198.795,297.414,143.313,249,135,249c-16,0-29.084,11.467-64.419,32.921&#10;&#9;&#9;&#9;C30.834,306.053-0.2,323.088-0.2,323.088V491.59h699.305v-56.836C699.105,434.755,635.395,466.741,530.599,453.288z" transform="matrix(1, 0, 0, 1, 0, 0)"/><path fill="#98B297" d="M699.105,352.927c0,0-38.013-24.694-68.011-49.387c-61.055-50.258-85.496-68.382-92.995-68.382&#10;&#9;&#9;&#9;c-10.606,0-68.997,55.086-122.994,89.277c-60.371,38.227-131.319,85.478-246.813,108.272C63.496,453.388-0.2,404.213-0.2,404.213&#10;&#9;&#9;&#9;v87.377h699.305V352.927z" transform="matrix(1, 0, 0, 1, 0, 0)"/><path fill="#FFFFFF" d="M257.292,238.61h-4.384c0.028-0.479,0.046-0.96,0.046-1.446c0-13.576-11.006-24.581-24.581-24.581H150.29&#10;&#9;&#9;&#9;c-13.576,0-24.581,11.005-24.581,24.581c0,0.486,0.018,0.967,0.046,1.446h-20.289c-13.576,0-24.581,11.005-24.581,24.581&#10;&#9;&#9;&#9;c0,13.576,11.006,24.581,24.581,24.581h151.827c13.576,0,24.581-11.006,24.581-24.581&#10;&#9;&#9;&#9;C281.873,249.615,270.868,238.61,257.292,238.61z" transform="matrix(1, 0, 0, 1, 0, 0)"/><path d="M 38.76300048828125 489.59698486328125 L 3.7039999961853027 489.9670104980469 L 38.76300048828125 396.3529968261719 L 73.822998046875 489.9670104980469 Z" fill="#7DA881" transform="matrix(1, 0, 0, 1, 0, 0)"/><path d="M 87.0459976196289 490.0989990234375 L 61.44200134277344 490.3689880371094 L 87.0459976196289 422.00299072265625 L 112.6510009765625 490.3689880371094 Z" fill="#7DA881" transform="matrix(1, 0, 0, 1, 0, 0)"/><path d="M 617.0460205078125 490.0989990234375 L 591.4420166015625 490.3689880371094 L 617.0460205078125 422.00299072265625 L 642.6510009765625 490.3689880371094 Z" fill="#7DA881" transform="matrix(1, 0, 0, 1, 0, 0)"/><path d="M 650.0460205078125 490.85101318359375 L 616.280029296875 491.2070007324219 L 650.0460205078125 401.0459899902344 L 683.81298828125 491.2070007324219 Z" fill="#7DA881" transform="matrix(1, 0, 0, 1, 0, 0)"/><path d="M 337.61700439453125 383.4739990234375 L 318.8710021972656 383.6719970703125 L 337.61700439453125 333.61700439453125 L 356.3630065917969 383.6719970703125 Z" fill="#98B297" transform="matrix(1, 0, 0, 1, 0, 0)"/><path d="M 363.1080017089844 370.1839904785156 L 349.54400634765625 370.3269958496094 L 363.1080017089844 334.1080017089844 L 376.6730041503906 370.3269958496094 Z" fill="#98B297" transform="matrix(1, 0, 0, 1, 0, 0)"/><path d="M 488.1080017089844 282.4880065917969 L 477.81298828125 282.59698486328125 L 488.1080017089844 255.10800170898438 L 498.40301513671875 282.59698486328125 Z" fill="#98B297" transform="matrix(1, 0, 0, 1, 0, 0)"/><path d="M 180.10800170898438 437.4880065917969 L 169.81300354003906 437.59698486328125 L 180.10800170898438 410.1080017089844 L 190.4029998779297 437.59698486328125 Z" fill="#98B297" transform="matrix(1, 0, 0, 1, 0, 0)"/><path d="M 652.1079711914062 329.125 L 638.4849853515625 329.26800537109375 L 652.1079711914062 292.8919982910156 L 665.7319946289062 329.26800537109375 Z" fill="#98B297" transform="matrix(1, 0, 0, 1, 0, 0)"/><path d="M 449.006012 491.675995 L 487 436.200012 L 524.994019 491.675995" fill="#BC9B62" transform="matrix(1, 0, 0, 1, 0, 0)"/><path d="M 523.343994140625 492.8059997558594 L 487 439.739990234375 L 450.656005859375 492.8059997558594 L 447.3559875488281 490.5459899902344 L 487 432.6610107421875 L 526.6439819335938 490.5459899902344 Z" fill="#7E5B2E" transform="matrix(1, 0, 0, 1, 0, 0)"/><path d="M 479.96701 474.115997 H 494.03301 V 491.238997 H 479.96701 V 474.115997 Z" fill="#7E5B2E" transform="matrix(1, 0, 0, 1, 0, 0)"/><path d="M 466.971985 473.503998 H 474.004985 V 482.065998 H 466.971985 V 473.503998 Z" fill="#7E5B2E" transform="matrix(1, 0, 0, 1, 0, 0)"/><path d="M 499.384003 473.503998 H 506.417003 V 482.065998 H 499.384003 V 473.503998 Z" fill="#7E5B2E" transform="matrix(1, 0, 0, 1, 0, 0)"/><path fill="#FFFFFF" d="M1171.658,491.1v-16.891c0-31.669,25.673-57.342,57.342-57.342l0,0c31.669,0,57.342,25.673,57.342,57.342&#10;&#9;&#9;&#9;V491.1" transform="matrix(1, 0, 0, 1, 0, 0)"/><path fill="#D7E2E9" d="M1171.349,491.1v-6.939c0-13.009,9.107-23.555,20.342-23.555l0,0c11.234,0,20.342,10.546,20.342,23.555&#10;&#9;&#9;&#9;v6.939" transform="matrix(1, 0, 0, 1, 0, 0)"/><path fill="#FFFFFF" d="M1153.658,491.1v-8.152c0-15.285,12.54-27.675,28.009-27.675l0,0c15.469,0,28.009,12.391,28.009,27.675&#10;&#9;&#9;&#9;v8.152" transform="matrix(1, 0, 0, 1, 0, 0)"/><path fill="#D7E2E9" d="M1157.858,491.1v-6.939c0-13.009,9.107-23.555,20.342-23.555l0,0c11.235,0,20.342,10.546,20.342,23.555&#10;&#9;&#9;&#9;v6.939" transform="matrix(1, 0, 0, 1, 0, 0)"/><path d="M 865.2969970703125 273 L 939 262 L 864 291 L 891 335 L 841 297 Z" fill="#D3E4ED" transform="matrix(1, 0, 0, 1, 0, 0)"/><path d="M 993 334 L 1096 376 L 1077 334 L 1092 311 Z" fill="#D3E4ED" transform="matrix(1, 0, 0, 1, 0, 0)"/><path d="M 1166 331 L 1264 343 L 1260 313 L 1309 315 L 1329 276 Z" fill="#D3E4ED" transform="matrix(1, 0, 0, 1, 0, 0)"/><path fill="#E5A76E" d="M1400,698c-32-20.461-190,39-244,66c-39.192,19.596-169.849,93.166-239,89c-83-5-217.895-58-217.895-58&#10;&#9;&#9;&#9;v161H1400V698z" transform="matrix(1, 0, 0, 1, 0, 0)"/><path fill="#F8B476" d="M1400,846c-25-4-115.587-21.103-208,2c-76,19-159.581,87.333-292,72c-95-11-200.895-15-200.895-15v75H1400&#10;&#9;&#9;&#9;V846z" transform="matrix(1, 0, 0, 1, 0, 0)"/><path fill="#F3C898" d="M699.105,905V630c0,0,82.895,30.8,87.895,32.8s34,52.2,40,54.2s44,5,46,9s19,28,23,28s73,8,77,8&#10;&#9;&#9;&#9;s58,69,86,84c17.74,9.503-101,42-104,45s-140,24-148,24S699.105,905,699.105,905z" transform="matrix(1, 0, 0, 1, 0, 0)"/><path d="M 896 754 L 883 801 L 973 762 Z" fill="#F2BE8D" transform="matrix(1, 0, 0, 1, 0, 0)"/><path d="M 807.781982421875 720.6019897460938 L 793 744 L 760 726 Z" fill="#F2BE8D" transform="matrix(1, 0, 0, 1, 0, 0)"/><path d="M 858.8720092773438 772.5609741210938 L 833.655029296875 783.9210205078125 L 819.68798828125 760.9619750976562 Z" fill="#F2BE8D" transform="matrix(1, 0, 0, 1, 0, 0)"/><path fill="#F2BE8D" d="M791,663.3L747.473,684l-48.368-19v-35C699.105,630,789.021,660.3,791,663.3z" transform="matrix(1, 0, 0, 1, 0, 0)"/><path fill="#F8B476" d="M699.105,898c41,14,101.895-20,101.895-20l18,21l42-28l45,9l49,11c0,0-65,21-65,26&#10;&#9;&#9;&#9;c0,15.454-134.607,33.041-190.895,22V898z" transform="matrix(1, 0, 0, 1, 0, 0)"/><path d="M 1152 869 L 1191 836 L 1234 845 L 1242 883 Z" fill="#F3C898" transform="matrix(1, 0, 0, 1, 0, 0)"/><path d="M 1152 869 L 1191 836 L 1181 817 Z" fill="#F3CBA6" transform="matrix(1, 0, 0, 1, 0, 0)"/><path d="M 1265 873 L 1252 839 L 1234 845 L 1242 883 Z" fill="#E5A76E" transform="matrix(1, 0, 0, 1, 0, 0)"/><path d="M 1181 817 L 1191 836 L 1234 845 L 1252 839 Z" fill="#F4D2B1" transform="matrix(1, 0, 0, 1, 0, 0)"/><path fill="#F3F4F4" d="M699.105,788.576H-0.2v101.268c0,0,26.618,35.986,74.822,26.226&#10;&#9;&#9;&#9;c48.204-9.761,44.734-14.719,106.495-13.499s115.237,19.04,175.491,10.499c60.255-8.541,107.866-26.719,137.993-25.499&#10;&#9;&#9;&#9;s76.361,26.338,107.995,29.999c31.634,3.66,96.51-14.305,96.51-14.305V788.576z" transform="matrix(1, 0, 0, 1, 0, 0)"/><path fill="#BEDFF1" d="M-0.2,764.577h699.305v101.268c0,0-59.012,46.364-107.009,36.603&#10;&#9;&#9;&#9;c-47.998-9.761-65.997-32.943-127.494-31.722s-115.494,39.043-175.491,30.502c-59.997-8.541-119.994-21.962-149.992-20.742&#10;&#9;&#9;&#9;s-55.497,18.301-86.996,21.962S-0.2,879.266-0.2,879.266V764.577z" transform="matrix(1, 0, 0, 1, 0, 0)"/><g transform="matrix(1, 0, 0, 1, 0, 0)">
			<path fill="#F3F4F4" d="M313,896.5c13.858-0.284,26.191-6.801,39.665-9.089c3.174-0.539,1.824-5.357-1.329-4.821&#10;&#9;&#9;&#9;&#9;c-13.008,2.21-24.973,8.637-38.335,8.911C309.78,891.566,309.774,896.566,313,896.5L313,896.5z"/>
		</g><g transform="matrix(1, 0, 0, 1, 0, 0)">
			<path fill="#F3F4F4" d="M238.738,887.159c4.215,2.032,8.566,3.257,13.262,3.341c3.226,0.058,3.221-4.943,0-5&#10;&#9;&#9;&#9;&#9;c-3.79-0.068-7.33-1.016-10.738-2.659C238.372,881.448,235.834,885.759,238.738,887.159L238.738,887.159z"/>
		</g><g transform="matrix(1, 0, 0, 1, 0, 0)">
			<path fill="#F3F4F4" d="M96.262,895.159c9.471-5.006,18.992-9.929,28.892-14.042c8.778-3.648,18.166-7.467,27.782-7.449&#10;&#9;&#9;&#9;&#9;c16.543,0.031,34.581,8.275,50.729,1.743c2.949-1.193,1.662-6.031-1.329-4.821c-16.283,6.586-35.214-2.318-52.07-1.891&#10;&#9;&#9;&#9;&#9;c-9.578,0.243-19.267,4.615-27.981,8.236c-9.781,4.065-19.189,8.961-28.546,13.907C90.887,892.348,93.414,896.664,96.262,895.159&#10;&#9;&#9;&#9;&#9;L96.262,895.159z"/>
		</g><g transform="matrix(1, 0, 0, 1, 0, 0)">
			<path fill="#F3F4F4" d="M452.665,874.411c20.285-3.445,42.249-2.924,62.548,0.1c20.837,3.104,39.244,17.792,60.788,16.99&#10;&#9;&#9;&#9;&#9;c3.214-0.12,3.226-5.12,0-5c-11.427,0.425-22.402-4.244-32.826-8.381c-9.868-3.917-19.431-7.532-30.011-8.91&#10;&#9;&#9;&#9;&#9;c-20.237-2.635-41.653-3.046-61.827,0.381C448.161,870.128,449.512,874.946,452.665,874.411L452.665,874.411z"/>
		</g><g transform="matrix(1, 0, 0, 1, 0, 0)">
			<path fill="#F3F4F4" d="M697.335,862.589c-26.328,9.633-50.78,25.65-79.335,27.911c-3.192,0.253-3.217,5.255,0,5&#10;&#9;&#9;&#9;&#9;c29.151-2.308,53.804-18.262,80.665-28.089C701.667,866.312,700.37,861.479,697.335,862.589L697.335,862.589z"/>
		</g><g transform="matrix(1, 0, 0, 1, 0, 0)">
			<path fill="#F3F4F4" d="M375,879.5c21.343-1.449,42.051-8.889,62.665-14.089c3.125-0.788,1.799-5.61-1.329-4.821&#10;&#9;&#9;&#9;&#9;C416.184,865.673,395.86,873.083,375,874.5C371.801,874.717,371.78,879.719,375,879.5L375,879.5z"/>
		</g><g transform="matrix(1, 0, 0, 1, 0, 0)">
			<path fill="#F3F4F4" d="M32.232,894.768c12.791,9.948,31.22,10.839,46.768,9.732c3.197-0.228,3.219-5.229,0-5&#10;&#9;&#9;&#9;&#9;c-13.985,0.995-31.642,0.746-43.232-8.268C33.255,889.278,29.689,892.79,32.232,894.768L32.232,894.768z"/>
		</g><g transform="matrix(1, 0, 0, 1, 0, 0)">
			<path fill="#F3F4F4" d="M0.232,863.768C16.961,877.392,35.337,885.36,57,886.5c3.224,0.17,3.207-4.831,0-5&#10;&#9;&#9;&#9;&#9;c-20.25-1.066-37.587-8.527-53.232-21.268C1.291,858.215-2.269,861.731,0.232,863.768L0.232,863.768z"/>
		</g><g transform="matrix(1, 0, 0, 1, 0, 0)">
			<path fill="#F3F4F4" d="M568.738,872.159c18.264,8.789,36.758,7.168,54.524-2c2.866-1.479,0.337-5.793-2.524-4.317&#10;&#9;&#9;&#9;&#9;c-16.067,8.291-32.912,9.971-49.476,2C568.371,866.45,565.833,870.761,568.738,872.159L568.738,872.159z"/>
		</g><g transform="matrix(1, 0, 0, 1, 0, 0)">
			<path fill="#F3F4F4" d="M260.335,880.411c17.193,4.161,36.059,5.38,53.329,1c3.124-0.792,1.798-5.614-1.329-4.821&#10;&#9;&#9;&#9;&#9;c-16.382,4.154-34.37,2.945-50.671-1C258.532,874.831,257.202,879.652,260.335,880.411L260.335,880.411z"/>
		</g><g transform="matrix(1, 0, 0, 1, 0, 0)">
			<path fill="#F3F4F4" d="M490,853.5c4.928,0.003,9.666,0.173,14.335,1.911c3.028,1.127,4.323-3.707,1.329-4.821&#10;&#9;&#9;&#9;&#9;c-5.062-1.883-10.32-2.086-15.665-2.089C486.776,848.498,486.776,853.498,490,853.5L490,853.5z"/>
		</g><g transform="matrix(1, 0, 0, 1, 0, 0)">
			<path fill="#F3F4F4" d="M99,877.5c1.03-0.047,1.771-0.391,2.558-1.033c0.124-0.101,0.232-0.223,0.347-0.334&#10;&#9;&#9;&#9;&#9;c0.298-0.287-0.555,0.373-0.194,0.157c-0.135,0.057-0.27,0.114-0.405,0.171c0.245-0.058,0.143-0.046-0.306,0.039&#10;&#9;&#9;&#9;&#9;c1.361-0.063,2.5-1.09,2.5-2.5c0-1.315-1.138-2.563-2.5-2.5c-1.03,0.047-1.771,0.391-2.558,1.033&#10;&#9;&#9;&#9;&#9;c-0.124,0.101-0.232,0.223-0.347,0.334c-0.298,0.287,0.555-0.373,0.194-0.157c0.135-0.057,0.27-0.114,0.405-0.171&#10;&#9;&#9;&#9;&#9;c-0.245,0.058-0.143,0.046,0.306-0.039c-1.361,0.063-2.5,1.09-2.5,2.5C96.5,876.315,97.638,877.563,99,877.5L99,877.5z"/>
		</g><g transform="matrix(1, 0, 0, 1, 0, 0)">
			<path fill="#F3F4F4" d="M143,911.5c17.833,0.124,35.021,4.051,52.335,7.911c3.141,0.7,4.476-4.12,1.329-4.821&#10;&#9;&#9;&#9;&#9;c-17.745-3.956-35.391-7.962-53.665-8.089C139.775,906.477,139.777,911.478,143,911.5L143,911.5z"/>
		</g><g transform="matrix(1, 0, 0, 1, 0, 0)">
			<path fill="#F3F4F4" d="M369,919.5c17.222-2.137,33.876-6.865,50.665-11.089c3.125-0.786,1.799-5.609-1.329-4.821&#10;&#9;&#9;&#9;&#9;c-16.334,4.11-32.578,8.831-49.335,10.911C365.844,914.892,365.805,919.896,369,919.5L369,919.5z"/>
		</g><g transform="matrix(1, 0, 0, 1, 0, 0)">
			<path fill="#F3F4F4" d="M526.335,905.411c15.226,2.381,27.053,13.75,42.665,15.089c3.214,0.276,3.187-4.727,0-5&#10;&#9;&#9;&#9;&#9;c-15.017-1.289-26.572-12.602-41.335-14.911C524.511,900.096,523.157,904.914,526.335,905.411L526.335,905.411z"/>
		</g><g transform="matrix(1, 0, 0, 1, 0, 0)">
			<path fill="#F3F4F4" d="M590.335,925.411c2.627,0.838,5.373,1.162,8,2c3.081,0.982,4.389-3.846,1.329-4.821&#10;&#9;&#9;&#9;&#9;c-2.627-0.838-5.373-1.162-8-2C588.584,919.607,587.276,924.435,590.335,925.411L590.335,925.411z"/>
		</g><g transform="matrix(1, 0, 0, 1, 0, 0)">
			<path fill="#F3F4F4" d="M643,926.5c8.207-0.213,15.858-2.809,23.665-5.089c3.088-0.902,1.773-5.727-1.329-4.821&#10;&#9;&#9;&#9;&#9;c-7.362,2.15-14.591,4.71-22.335,4.911C639.782,921.583,639.774,926.584,643,926.5L643,926.5z"/>
		</g><g transform="matrix(1, 0, 0, 1, 0, 0)">
			<path fill="#F3F4F4" d="M263.738,919.159c3.164,1.98,6.609,2.338,10.262,2.341c3.224,0.003,3.224-4.997,0-5&#10;&#9;&#9;&#9;&#9;c-2.794-0.002-5.308-0.138-7.738-1.659C263.52,913.125,261.013,917.453,263.738,919.159L263.738,919.159z"/>
		</g><g transform="matrix(1, 0, 0, 1, 0, 0)">
			<path fill="#F3F4F4" d="M76.665,926.411c4-1,8-2,12-3c3.127-0.782,1.8-5.604-1.329-4.821c-4,1-8,2-12,3&#10;&#9;&#9;&#9;&#9;C72.209,922.371,73.536,927.193,76.665,926.411L76.665,926.411z"/>
		</g><g transform="matrix(1, 0, 0, 1, 0, 0)">
			<path fill="#F3F4F4" d="M468.768,901.768c-0.51,0.464,0.568-0.235-0.048,0.007c0.336-0.132,0.698-0.197,1.052-0.256&#10;&#9;&#9;&#9;&#9;c-0.614,0.102,0.251,0.001,0.371-0.005c0.285-0.014,0.572-0.013,0.857-0.013c1.363-0.001,2.5-1.136,2.5-2.5&#10;&#9;&#9;&#9;&#9;c0-1.362-1.137-2.501-2.5-2.5c-2.084,0.002-4.17,0.276-5.768,1.732c-1.008,0.918-0.93,2.606,0,3.536&#10;&#9;&#9;&#9;&#9;C466.229,902.764,467.761,902.685,468.768,901.768L468.768,901.768z"/>
		</g><g transform="matrix(1, 0, 0, 1, 0, 0)">
			<path fill="#F3F4F4" d="M497,909.5c1.333,0,2.667,0,4,0c1.363,0,2.5-1.137,2.5-2.5s-1.137-2.5-2.5-2.5c-1.333,0-2.667,0-4,0&#10;&#9;&#9;&#9;&#9;c-1.363,0-2.5,1.137-2.5,2.5S495.637,909.5,497,909.5L497,909.5z"/>
		</g><g transform="matrix(1, 0, 0, 1, 0, 0)">
			<path fill="#F3F4F4" d="M435.665,914.411c2.904-0.969,5.836-1.915,8.597-3.252c2.902-1.405,0.365-5.716-2.524-4.317&#10;&#9;&#9;&#9;&#9;c-2.367,1.146-4.913,1.918-7.403,2.748C431.293,910.604,432.597,915.434,435.665,914.411L435.665,914.411z"/>
		</g><g transform="matrix(1, 0, 0, 1, 0, 0)">
			<path fill="#F3F4F4" d="M310.665,929.411c3.74-0.865,7.516-0.909,11.335-0.911c3.224-0.002,3.224-5.002,0-5&#10;&#9;&#9;&#9;&#9;c-4.267,0.002-8.49,0.124-12.665,1.089C306.194,925.316,307.527,930.136,310.665,929.411L310.665,929.411z"/>
		</g>

<path d="M 1070.6038818359375 110.69219970703125" style="fill: rgb(30, 22, 23); fill-opacity: 1; stroke: rgb(0, 0, 0); stroke-opacity: 1; stroke-width: 0; paint-order: fill;"/></svg>