<?xml version="1.0" standalone="no"?><!-- Generator: Gravit.io --><svg xmlns="http://www.w3.org/2000/svg" xmlns:xlink="http://www.w3.org/1999/xlink" style="isolation:isolate" viewBox="0 0 2560 1600" width="2560" height="1600"><defs><clipPath id="_clipPath_NhG7AjYvpNHSHB4sEZA0d4pxKCBJ9umz"><rect width="2560" height="1600"/></clipPath></defs><g clip-path="url(#_clipPath_NhG7AjYvpNHSHB4sEZA0d4pxKCBJ9umz)"><g style="isolation:isolate" id="Layer 1"><defs><filter id="C7b2Kz6koGlz3aXOVuqyJyrj2nMrtskH" x="-200%" y="-200%" width="400%" height="400%"><feOffset xmlns="http://www.w3.org/2000/svg" in="SourceAlpha" result="offOut" dx="5" dy="5"/><feGaussianBlur xmlns="http://www.w3.org/2000/svg" in="offOut" result="blurOut" stdDeviation="7.5"/><feComponentTransfer xmlns="http://www.w3.org/2000/svg" in="blurOut" result="opacOut"><feFuncA xmlns="http://www.w3.org/2000/svg" type="table" tableValues="0 0.5"/></feComponentTransfer><feBlend xmlns="http://www.w3.org/2000/svg" in="SourceGraphic" in2="opacOut" mode="normal"/></filter></defs><g filter="url(#C7b2Kz6koGlz3aXOVuqyJyrj2nMrtskH)"><path d=" M -36.457 173.062 L -72 173.062 C -101.251 173.062 -125 196.811 -125 226.062 C -125 255.314 -101.251 279.062 -72 279.062 L 360 279.062 C 389.251 279.062 413 255.314 413 226.062 C 413 196.811 389.251 173.062 360 173.062 L 324.457 173.062 C 324.815 170.614 325 168.109 325 165.562 C 325 137.139 301.924 114.062 273.5 114.062 L 14.5 114.062 C -13.924 114.062 -37 137.139 -37 165.562 C -37 168.109 -36.815 170.614 -36.457 173.062 Z " fill="rgb(230,230,230)" fill-opacity="0.9"/></g><defs><filter id="v75BTc16uwiDCxlO7f2KHE2NKM5r3AUu" x="-200%" y="-200%" width="400%" height="400%"><feOffset xmlns="http://www.w3.org/2000/svg" in="SourceAlpha" result="offOut" dx="5" dy="5"/><feGaussianBlur xmlns="http://www.w3.org/2000/svg" in="offOut" result="blurOut" stdDeviation="7.5"/><feComponentTransfer xmlns="http://www.w3.org/2000/svg" in="blurOut" result="opacOut"><feFuncA xmlns="http://www.w3.org/2000/svg" type="table" tableValues="0 0.5"/></feComponentTransfer><feBlend xmlns="http://www.w3.org/2000/svg" in="SourceGraphic" in2="opacOut" mode="normal"/></filter></defs><g filter="url(#v75BTc16uwiDCxlO7f2KHE2NKM5r3AUu)"><path d=" M 2288.425 405.931 L 2264.972 405.931 C 2245.67 405.931 2230 421.602 2230 440.903 C 2230 460.205 2245.67 475.875 2264.972 475.875 L 2550.028 475.875 C 2569.33 475.875 2585 460.205 2585 440.903 C 2585 421.602 2569.33 405.931 2550.028 405.931 L 2526.575 405.931 C 2526.811 404.316 2526.933 402.663 2526.933 400.982 C 2526.933 382.227 2511.706 367 2492.951 367 L 2322.049 367 C 2303.294 367 2288.067 382.227 2288.067 400.982 C 2288.067 402.663 2288.189 404.316 2288.425 405.931 Z " fill="rgb(230,230,230)" fill-opacity="0.9"/></g><defs><filter id="QBgC7YOv6hl7RDB7Lx46OaPQcVe4o2Ev" x="-200%" y="-200%" width="400%" height="400%"><feOffset xmlns="http://www.w3.org/2000/svg" in="SourceAlpha" result="offOut" dx="5" dy="5"/><feGaussianBlur xmlns="http://www.w3.org/2000/svg" in="offOut" result="blurOut" stdDeviation="7.5"/><feComponentTransfer xmlns="http://www.w3.org/2000/svg" in="blurOut" result="opacOut"><feFuncA xmlns="http://www.w3.org/2000/svg" type="table" tableValues="0 0.5"/></feComponentTransfer><feBlend xmlns="http://www.w3.org/2000/svg" in="SourceGraphic" in2="opacOut" mode="normal"/></filter></defs><g filter="url(#QBgC7YOv6hl7RDB7Lx46OaPQcVe4o2Ev)"><path d=" M 2140.323 102.343 L 2108.731 102.343 C 2082.73 102.343 2061.621 123.452 2061.621 149.453 C 2061.621 175.453 2082.73 196.562 2108.731 196.562 L 2492.718 196.562 C 2518.719 196.562 2539.828 175.453 2539.828 149.453 C 2539.828 123.452 2518.719 102.343 2492.718 102.343 L 2461.125 102.343 C 2461.443 100.167 2461.608 97.941 2461.608 95.677 C 2461.608 70.412 2441.096 49.9 2415.832 49.9 L 2185.617 49.9 C 2160.352 49.9 2139.841 70.412 2139.841 95.677 C 2139.841 97.941 2140.005 100.167 2140.323 102.343 Z " fill="rgb(230,230,230)" fill-opacity="0.9"/></g><defs><filter id="efLQYOuv0wQroDtfhRX9A7owuv9r9bSl" x="-200%" y="-200%" width="400%" height="400%"><feOffset xmlns="http://www.w3.org/2000/svg" in="SourceAlpha" result="offOut" dx="5" dy="5"/><feGaussianBlur xmlns="http://www.w3.org/2000/svg" in="offOut" result="blurOut" stdDeviation="7.5"/><feComponentTransfer xmlns="http://www.w3.org/2000/svg" in="blurOut" result="opacOut"><feFuncA xmlns="http://www.w3.org/2000/svg" type="table" tableValues="0 0.5"/></feComponentTransfer><feBlend xmlns="http://www.w3.org/2000/svg" in="SourceGraphic" in2="opacOut" mode="normal"/></filter></defs><g filter="url(#efLQYOuv0wQroDtfhRX9A7owuv9r9bSl)"><path d=" M 579.421 413.886 L 547.539 413.886 C 521.302 413.886 500 435.188 500 461.425 C 500 487.663 521.302 508.965 547.539 508.965 L 935.03 508.965 C 961.268 508.965 982.57 487.663 982.57 461.425 C 982.57 435.188 961.268 413.886 935.03 413.886 L 903.149 413.886 C 903.47 411.69 903.636 409.443 903.636 407.159 C 903.636 381.663 882.938 360.965 857.442 360.965 L 625.127 360.965 C 599.632 360.965 578.933 381.663 578.933 407.159 C 578.933 409.443 579.1 411.69 579.421 413.886 Z " fill="rgb(230,230,230)" fill-opacity="0.9"/></g><defs><filter id="ltXtUAB5H6cDd7rAOm5g8NJwzShlDKWa" x="-200%" y="-200%" width="400%" height="400%"><feOffset xmlns="http://www.w3.org/2000/svg" in="SourceAlpha" result="offOut" dx="5" dy="5"/><feGaussianBlur xmlns="http://www.w3.org/2000/svg" in="offOut" result="blurOut" stdDeviation="7.5"/><feComponentTransfer xmlns="http://www.w3.org/2000/svg" in="blurOut" result="opacOut"><feFuncA xmlns="http://www.w3.org/2000/svg" type="table" tableValues="0 0.5"/></feComponentTransfer><feBlend xmlns="http://www.w3.org/2000/svg" in="SourceGraphic" in2="opacOut" mode="normal"/></filter></defs><g filter="url(#ltXtUAB5H6cDd7rAOm5g8NJwzShlDKWa)"><path d=" M 1802.65 450.643 L 1785.057 450.643 C 1770.577 450.643 1758.822 462.398 1758.822 476.877 C 1758.822 491.357 1770.577 503.112 1785.057 503.112 L 1998.895 503.112 C 2013.374 503.112 2025.13 491.357 2025.13 476.877 C 2025.13 462.398 2013.374 450.643 1998.895 450.643 L 1981.301 450.643 C 1981.478 449.43 1981.57 448.191 1981.57 446.93 C 1981.57 432.86 1970.147 421.438 1956.078 421.438 L 1827.874 421.438 C 1813.804 421.438 1802.381 432.86 1802.381 446.93 C 1802.381 448.191 1802.473 449.43 1802.65 450.643 Z " fill="rgb(230,230,230)" fill-opacity="0.9"/></g><defs><filter id="bdirR7NpiOi8sudVA6uZ1FMMWE9Z7YoQ" x="-200%" y="-200%" width="400%" height="400%"><feOffset xmlns="http://www.w3.org/2000/svg" in="SourceAlpha" result="offOut" dx="5" dy="5"/><feGaussianBlur xmlns="http://www.w3.org/2000/svg" in="offOut" result="blurOut" stdDeviation="7.5"/><feComponentTransfer xmlns="http://www.w3.org/2000/svg" in="blurOut" result="opacOut"><feFuncA xmlns="http://www.w3.org/2000/svg" type="table" tableValues="0 0.5"/></feComponentTransfer><feBlend xmlns="http://www.w3.org/2000/svg" in="SourceGraphic" in2="opacOut" mode="normal"/></filter></defs><g filter="url(#bdirR7NpiOi8sudVA6uZ1FMMWE9Z7YoQ)"><path d=" M 1030.731 60.967 L 1008.365 60.967 C 989.958 60.967 975.014 75.912 975.014 94.318 C 975.014 112.725 989.958 127.669 1008.365 127.669 L 1280.208 127.669 C 1298.615 127.669 1313.559 112.725 1313.559 94.318 C 1313.559 75.912 1298.615 60.967 1280.208 60.967 L 1257.842 60.967 C 1258.067 59.427 1258.183 57.851 1258.183 56.248 C 1258.183 38.362 1243.662 23.841 1225.776 23.841 L 1062.797 23.841 C 1044.911 23.841 1030.39 38.362 1030.39 56.248 C 1030.39 57.851 1030.506 59.427 1030.731 60.967 Z " fill="rgb(230,230,230)" fill-opacity="0.9"/></g><defs><filter id="G3U21lbxutcV9IEc8hGnIG8HUAQ6wDHE" x="-200%" y="-200%" width="400%" height="400%"><feOffset xmlns="http://www.w3.org/2000/svg" in="SourceAlpha" result="offOut" dx="5" dy="5"/><feGaussianBlur xmlns="http://www.w3.org/2000/svg" in="offOut" result="blurOut" stdDeviation="7.5"/><feComponentTransfer xmlns="http://www.w3.org/2000/svg" in="blurOut" result="opacOut"><feFuncA xmlns="http://www.w3.org/2000/svg" type="table" tableValues="0 0.5"/></feComponentTransfer><feBlend xmlns="http://www.w3.org/2000/svg" in="SourceGraphic" in2="opacOut" mode="normal"/></filter></defs><g filter="url(#G3U21lbxutcV9IEc8hGnIG8HUAQ6wDHE)"><path d=" M 1403.37 335.897 L 1383.552 335.897 C 1367.242 335.897 1354 349.139 1354 365.448 C 1354 381.758 1367.242 395 1383.552 395 L 1624.424 395 C 1640.734 395 1653.976 381.758 1653.976 365.448 C 1653.976 349.139 1640.734 335.897 1624.424 335.897 L 1604.606 335.897 C 1604.806 334.532 1604.909 333.135 1604.909 331.715 C 1604.909 315.867 1592.042 303 1576.194 303 L 1431.782 303 C 1415.933 303 1403.067 315.867 1403.067 331.715 C 1403.067 333.135 1403.17 334.532 1403.37 335.897 Z " fill="rgb(230,230,230)" fill-opacity="0.9"/></g><defs><filter id="4QFN3dXSJY4AlJzA4al6rHL5BvZ7MZMj" x="-200%" y="-200%" width="400%" height="400%"><feOffset xmlns="http://www.w3.org/2000/svg" in="SourceAlpha" result="offOut" dx="5" dy="5"/><feGaussianBlur xmlns="http://www.w3.org/2000/svg" in="offOut" result="blurOut" stdDeviation="7.5"/><feComponentTransfer xmlns="http://www.w3.org/2000/svg" in="blurOut" result="opacOut"><feFuncA xmlns="http://www.w3.org/2000/svg" type="table" tableValues="0 0.5"/></feComponentTransfer><feBlend xmlns="http://www.w3.org/2000/svg" in="SourceGraphic" in2="opacOut" mode="normal"/></filter></defs><g filter="url(#4QFN3dXSJY4AlJzA4al6rHL5BvZ7MZMj)"><path d=" M 673.72 146.14 L 662.593 146.14 C 653.435 146.14 646 153.575 646 162.733 C 646 171.891 653.435 179.326 662.593 179.326 L 797.838 179.326 C 806.995 179.326 814.43 171.891 814.43 162.733 C 814.43 153.575 806.995 146.14 797.838 146.14 L 786.71 146.14 C 786.822 145.374 786.88 144.59 786.88 143.792 C 786.88 134.894 779.656 127.669 770.757 127.669 L 689.673 127.669 C 680.774 127.669 673.55 134.894 673.55 143.792 C 673.55 144.59 673.608 145.374 673.72 146.14 Z " fill="rgb(230,230,230)" fill-opacity="0.9"/></g><defs><filter id="kA7BVPlYdxJ5TKqrrdUgecF8XKkG2y0Y" x="-200%" y="-200%" width="400%" height="400%"><feOffset xmlns="http://www.w3.org/2000/svg" in="SourceAlpha" result="offOut" dx="5" dy="5"/><feGaussianBlur xmlns="http://www.w3.org/2000/svg" in="offOut" result="blurOut" stdDeviation="7.5"/><feComponentTransfer xmlns="http://www.w3.org/2000/svg" in="blurOut" result="opacOut"><feFuncA xmlns="http://www.w3.org/2000/svg" type="table" tableValues="0 0.5"/></feComponentTransfer><feBlend xmlns="http://www.w3.org/2000/svg" in="SourceGraphic" in2="opacOut" mode="normal"/></filter></defs><g filter="url(#kA7BVPlYdxJ5TKqrrdUgecF8XKkG2y0Y)"><path d=" M 1681.696 106.705 L 1670.568 106.705 C 1661.411 106.705 1653.976 114.14 1653.976 123.298 C 1653.976 132.455 1661.411 139.89 1670.568 139.89 L 1805.813 139.89 C 1814.971 139.89 1822.406 132.455 1822.406 123.298 C 1822.406 114.14 1814.971 106.705 1805.813 106.705 L 1794.686 106.705 C 1794.798 105.939 1794.856 105.155 1794.856 104.357 C 1794.856 95.459 1787.632 88.234 1778.733 88.234 L 1697.649 88.234 C 1688.75 88.234 1681.526 95.459 1681.526 104.357 C 1681.526 105.155 1681.584 105.939 1681.696 106.705 Z " fill="rgb(230,230,230)" fill-opacity="0.9"/></g></g></g></svg>